<mxfile host="app.diagrams.net" modified="2024-01-04T04:31:07.762Z" agent="Mozilla/5.0 (Macintosh; Intel Mac OS X 10_15_7) AppleWebKit/537.36 (KHTML, like Gecko) Chrome/120.0.0.0 Safari/537.36" etag="bu9uFtXBQLQW2HWvF1B9" version="22.1.16" type="github">
  <diagram name="第 1 页" id="ya8zVMIKMvvZsOUXUVic">
    <mxGraphModel dx="1242" dy="613" grid="1" gridSize="10" guides="1" tooltips="1" connect="1" arrows="1" fold="1" page="1" pageScale="1" pageWidth="1169" pageHeight="1654" math="0" shadow="0">
      <root>
        <mxCell id="0" />
        <mxCell id="1" parent="0" />
        <mxCell id="Naz0Be-m6RnTPQ04V0HG-1" value="老的货车帮网络库（iOS）" style="text;html=1;strokeColor=none;fillColor=none;align=center;verticalAlign=middle;whiteSpace=wrap;rounded=0;" vertex="1" parent="1">
          <mxGeometry x="145" y="180" width="145" height="30" as="geometry" />
        </mxCell>
        <mxCell id="Naz0Be-m6RnTPQ04V0HG-2" value="新的货车帮网络库（融合库）（iOS）" style="text;html=1;strokeColor=none;fillColor=none;align=center;verticalAlign=middle;whiteSpace=wrap;rounded=0;" vertex="1" parent="1">
          <mxGeometry x="750" y="50" width="220" height="30" as="geometry" />
        </mxCell>
        <mxCell id="Naz0Be-m6RnTPQ04V0HG-4" value="50002，120001，5，001001，002001" style="rounded=1;whiteSpace=wrap;html=1;" vertex="1" parent="1">
          <mxGeometry x="55" y="480" width="120" height="60" as="geometry" />
        </mxCell>
        <mxCell id="Naz0Be-m6RnTPQ04V0HG-5" value="弹登出框" style="rounded=1;whiteSpace=wrap;html=1;" vertex="1" parent="1">
          <mxGeometry x="265" y="600" width="120" height="60" as="geometry" />
        </mxCell>
        <mxCell id="Naz0Be-m6RnTPQ04V0HG-6" value="是否可以重登" style="rhombus;whiteSpace=wrap;html=1;" vertex="1" parent="1">
          <mxGeometry x="75" y="590" width="80" height="80" as="geometry" />
        </mxCell>
        <mxCell id="Naz0Be-m6RnTPQ04V0HG-8" value="120010，120002" style="rounded=1;whiteSpace=wrap;html=1;" vertex="1" parent="1">
          <mxGeometry x="265" y="480" width="120" height="60" as="geometry" />
        </mxCell>
        <mxCell id="Naz0Be-m6RnTPQ04V0HG-10" value="重登" style="rhombus;whiteSpace=wrap;html=1;" vertex="1" parent="1">
          <mxGeometry x="75" y="730" width="80" height="80" as="geometry" />
        </mxCell>
        <mxCell id="Naz0Be-m6RnTPQ04V0HG-11" value="" style="endArrow=classic;html=1;rounded=0;exitX=0.5;exitY=1;exitDx=0;exitDy=0;entryX=0.5;entryY=0;entryDx=0;entryDy=0;" edge="1" parent="1" source="Naz0Be-m6RnTPQ04V0HG-4" target="Naz0Be-m6RnTPQ04V0HG-6">
          <mxGeometry width="50" height="50" relative="1" as="geometry">
            <mxPoint x="535" y="770" as="sourcePoint" />
            <mxPoint x="585" y="720" as="targetPoint" />
          </mxGeometry>
        </mxCell>
        <mxCell id="Naz0Be-m6RnTPQ04V0HG-12" value="" style="endArrow=classic;html=1;rounded=1;exitX=1;exitY=0.5;exitDx=0;exitDy=0;entryX=0.5;entryY=1;entryDx=0;entryDy=0;curved=0;" edge="1" parent="1" source="Naz0Be-m6RnTPQ04V0HG-10" target="Naz0Be-m6RnTPQ04V0HG-5">
          <mxGeometry width="50" height="50" relative="1" as="geometry">
            <mxPoint x="545" y="780" as="sourcePoint" />
            <mxPoint x="595" y="730" as="targetPoint" />
            <Array as="points">
              <mxPoint x="325" y="770" />
            </Array>
          </mxGeometry>
        </mxCell>
        <mxCell id="Naz0Be-m6RnTPQ04V0HG-13" value="" style="endArrow=classic;html=1;rounded=0;exitX=0.5;exitY=1;exitDx=0;exitDy=0;entryX=0.5;entryY=0;entryDx=0;entryDy=0;" edge="1" parent="1" source="Naz0Be-m6RnTPQ04V0HG-6" target="Naz0Be-m6RnTPQ04V0HG-10">
          <mxGeometry width="50" height="50" relative="1" as="geometry">
            <mxPoint x="555" y="790" as="sourcePoint" />
            <mxPoint x="605" y="740" as="targetPoint" />
          </mxGeometry>
        </mxCell>
        <mxCell id="Naz0Be-m6RnTPQ04V0HG-14" value="" style="endArrow=classic;html=1;rounded=0;exitX=1;exitY=0.5;exitDx=0;exitDy=0;entryX=0;entryY=0.5;entryDx=0;entryDy=0;" edge="1" parent="1" source="Naz0Be-m6RnTPQ04V0HG-6" target="Naz0Be-m6RnTPQ04V0HG-5">
          <mxGeometry width="50" height="50" relative="1" as="geometry">
            <mxPoint x="555" y="790" as="sourcePoint" />
            <mxPoint x="605" y="740" as="targetPoint" />
          </mxGeometry>
        </mxCell>
        <mxCell id="Naz0Be-m6RnTPQ04V0HG-15" value="正常运行" style="rounded=1;whiteSpace=wrap;html=1;" vertex="1" parent="1">
          <mxGeometry x="55" y="890" width="120" height="60" as="geometry" />
        </mxCell>
        <mxCell id="Naz0Be-m6RnTPQ04V0HG-16" value="" style="endArrow=classic;html=1;rounded=0;exitX=0.5;exitY=1;exitDx=0;exitDy=0;entryX=0.5;entryY=0;entryDx=0;entryDy=0;" edge="1" parent="1" source="Naz0Be-m6RnTPQ04V0HG-10" target="Naz0Be-m6RnTPQ04V0HG-15">
          <mxGeometry width="50" height="50" relative="1" as="geometry">
            <mxPoint x="555" y="790" as="sourcePoint" />
            <mxPoint x="605" y="740" as="targetPoint" />
          </mxGeometry>
        </mxCell>
        <mxCell id="Naz0Be-m6RnTPQ04V0HG-17" value="NO" style="text;html=1;strokeColor=none;fillColor=none;align=center;verticalAlign=middle;whiteSpace=wrap;rounded=0;" vertex="1" parent="1">
          <mxGeometry x="175" y="600" width="60" height="30" as="geometry" />
        </mxCell>
        <mxCell id="Naz0Be-m6RnTPQ04V0HG-18" value="YES" style="text;html=1;strokeColor=none;fillColor=none;align=center;verticalAlign=middle;whiteSpace=wrap;rounded=0;" vertex="1" parent="1">
          <mxGeometry x="115" y="680" width="60" height="30" as="geometry" />
        </mxCell>
        <mxCell id="Naz0Be-m6RnTPQ04V0HG-19" value="failure" style="text;html=1;strokeColor=none;fillColor=none;align=center;verticalAlign=middle;whiteSpace=wrap;rounded=0;" vertex="1" parent="1">
          <mxGeometry x="215" y="740" width="60" height="30" as="geometry" />
        </mxCell>
        <mxCell id="Naz0Be-m6RnTPQ04V0HG-20" value="success" style="text;html=1;strokeColor=none;fillColor=none;align=center;verticalAlign=middle;whiteSpace=wrap;rounded=0;" vertex="1" parent="1">
          <mxGeometry x="115" y="830" width="60" height="30" as="geometry" />
        </mxCell>
        <mxCell id="Naz0Be-m6RnTPQ04V0HG-21" value="token 仍然使用的是老的 token" style="text;html=1;strokeColor=none;fillColor=none;align=center;verticalAlign=middle;whiteSpace=wrap;rounded=0;" vertex="1" parent="1">
          <mxGeometry x="125" y="210" width="190" height="30" as="geometry" />
        </mxCell>
        <mxCell id="Naz0Be-m6RnTPQ04V0HG-22" value="" style="endArrow=classic;html=1;rounded=0;exitX=0.5;exitY=1;exitDx=0;exitDy=0;entryX=0.5;entryY=0;entryDx=0;entryDy=0;" edge="1" parent="1" source="Naz0Be-m6RnTPQ04V0HG-8" target="Naz0Be-m6RnTPQ04V0HG-5">
          <mxGeometry width="50" height="50" relative="1" as="geometry">
            <mxPoint x="535" y="720" as="sourcePoint" />
            <mxPoint x="585" y="670" as="targetPoint" />
          </mxGeometry>
        </mxCell>
        <mxCell id="Naz0Be-m6RnTPQ04V0HG-23" value="货车帮错误 code" style="rounded=1;whiteSpace=wrap;html=1;" vertex="1" parent="1">
          <mxGeometry x="770" y="120" width="120" height="60" as="geometry" />
        </mxCell>
        <mxCell id="Naz0Be-m6RnTPQ04V0HG-25" value="50002，120001，5，001001，002001，120010，120002" style="rounded=1;whiteSpace=wrap;html=1;" vertex="1" parent="1">
          <mxGeometry x="640" y="240" width="120" height="60" as="geometry" />
        </mxCell>
        <mxCell id="Naz0Be-m6RnTPQ04V0HG-26" value="401" style="rounded=1;whiteSpace=wrap;html=1;" vertex="1" parent="1">
          <mxGeometry x="910" y="240" width="120" height="60" as="geometry" />
        </mxCell>
        <mxCell id="Naz0Be-m6RnTPQ04V0HG-27" value="" style="endArrow=none;html=1;rounded=0;" edge="1" parent="1">
          <mxGeometry width="50" height="50" relative="1" as="geometry">
            <mxPoint x="80" y="440" as="sourcePoint" />
            <mxPoint x="370" y="440" as="targetPoint" />
          </mxGeometry>
        </mxCell>
        <mxCell id="Naz0Be-m6RnTPQ04V0HG-28" value="" style="endArrow=classic;html=1;rounded=1;exitX=0.433;exitY=1.042;exitDx=0;exitDy=0;exitPerimeter=0;curved=0;" edge="1" parent="1">
          <mxGeometry width="50" height="50" relative="1" as="geometry">
            <mxPoint x="701.96" y="302.52" as="sourcePoint" />
            <mxPoint x="200" y="440" as="targetPoint" />
            <Array as="points">
              <mxPoint x="702" y="360" />
              <mxPoint x="200" y="360" />
            </Array>
          </mxGeometry>
        </mxCell>
        <mxCell id="Naz0Be-m6RnTPQ04V0HG-29" value="" style="endArrow=classic;html=1;rounded=0;entryX=0.5;entryY=0;entryDx=0;entryDy=0;" edge="1" parent="1" target="Naz0Be-m6RnTPQ04V0HG-4">
          <mxGeometry width="50" height="50" relative="1" as="geometry">
            <mxPoint x="115" y="440" as="sourcePoint" />
            <mxPoint x="610" y="480" as="targetPoint" />
          </mxGeometry>
        </mxCell>
        <mxCell id="Naz0Be-m6RnTPQ04V0HG-30" value="" style="endArrow=classic;html=1;rounded=0;entryX=0.5;entryY=0;entryDx=0;entryDy=0;" edge="1" parent="1" target="Naz0Be-m6RnTPQ04V0HG-8">
          <mxGeometry width="50" height="50" relative="1" as="geometry">
            <mxPoint x="325" y="440" as="sourcePoint" />
            <mxPoint x="125" y="490" as="targetPoint" />
          </mxGeometry>
        </mxCell>
        <mxCell id="Naz0Be-m6RnTPQ04V0HG-31" value="" style="endArrow=classic;html=1;rounded=0;exitX=0.5;exitY=1;exitDx=0;exitDy=0;entryX=0.5;entryY=0;entryDx=0;entryDy=0;" edge="1" parent="1" source="Naz0Be-m6RnTPQ04V0HG-23" target="Naz0Be-m6RnTPQ04V0HG-25">
          <mxGeometry width="50" height="50" relative="1" as="geometry">
            <mxPoint x="560" y="390" as="sourcePoint" />
            <mxPoint x="610" y="340" as="targetPoint" />
          </mxGeometry>
        </mxCell>
        <mxCell id="Naz0Be-m6RnTPQ04V0HG-32" value="" style="endArrow=classic;html=1;rounded=0;exitX=0.5;exitY=1;exitDx=0;exitDy=0;entryX=0.5;entryY=0;entryDx=0;entryDy=0;" edge="1" parent="1" source="Naz0Be-m6RnTPQ04V0HG-23" target="Naz0Be-m6RnTPQ04V0HG-26">
          <mxGeometry width="50" height="50" relative="1" as="geometry">
            <mxPoint x="840" y="190" as="sourcePoint" />
            <mxPoint x="710" y="250" as="targetPoint" />
          </mxGeometry>
        </mxCell>
        <mxCell id="Naz0Be-m6RnTPQ04V0HG-33" value="refresh token" style="rounded=1;whiteSpace=wrap;html=1;" vertex="1" parent="1">
          <mxGeometry x="920" y="400" width="120" height="60" as="geometry" />
        </mxCell>
        <mxCell id="Naz0Be-m6RnTPQ04V0HG-34" value="" style="endArrow=classic;html=1;rounded=0;exitX=0.5;exitY=1;exitDx=0;exitDy=0;entryX=0.433;entryY=-0.008;entryDx=0;entryDy=0;entryPerimeter=0;" edge="1" parent="1" source="Naz0Be-m6RnTPQ04V0HG-26" target="Naz0Be-m6RnTPQ04V0HG-33">
          <mxGeometry width="50" height="50" relative="1" as="geometry">
            <mxPoint x="560" y="390" as="sourcePoint" />
            <mxPoint x="610" y="340" as="targetPoint" />
          </mxGeometry>
        </mxCell>
        <mxCell id="Naz0Be-m6RnTPQ04V0HG-35" value="token 使用的是新的 refresh token" style="text;html=1;align=center;verticalAlign=middle;resizable=0;points=[];autosize=1;strokeColor=none;fillColor=none;" vertex="1" parent="1">
          <mxGeometry x="750" y="90" width="200" height="30" as="geometry" />
        </mxCell>
      </root>
    </mxGraphModel>
  </diagram>
</mxfile>
